<svg xmlns="http://www.w3.org/2000/svg" width="1600" height="388" viewBox="0 0 1600 388" version="1.1">
	<path d="M 130.746 1.086 C 120.509 3.498, 109.284 12.240, 102.171 23.339 C 99.999 26.727, 89.566 44.525, 78.987 62.890 C 61.786 92.749, 59.761 96.739, 59.839 100.618 C 59.887 103.004, 60.622 106.301, 61.472 107.945 C 63.205 111.298, 63.602 111.540, 129.500 149.478 C 153.150 163.094, 172.864 174.568, 173.308 174.975 C 173.753 175.383, 173.144 178.593, 171.954 182.108 C 170.179 187.355, 169.891 189.933, 170.343 196.500 C 170.646 200.900, 171.185 205.684, 171.541 207.131 C 172.173 209.701, 172.030 209.789, 165.430 210.939 C 147.890 213.993, 132.568 211.566, 121.117 203.919 C 112.611 198.240, 108.726 193.286, 96.959 173.120 C 91.304 163.429, 84.480 152.712, 81.795 149.304 C 76.207 142.211, 67.113 135.705, 59.718 133.509 C 40.092 127.680, 14.076 139.852, 4.502 159.342 C -1.164 170.878, -1.230 182.199, 4.288 195.861 C 7.226 203.136, 46.364 270.528, 49.798 274.227 C 52.932 277.603, 58.113 279.399, 62.315 278.568 C 64.067 278.222, 89.997 263.634, 119.937 246.152 L 174.375 214.365 180.437 220.490 C 186.525 226.640, 193.522 230.724, 199.688 231.724 C 201.509 232.020, 203 232.357, 203 232.474 C 203 232.591, 202.124 235.234, 201.053 238.347 C 195.315 255.022, 184.655 268.459, 172.738 274.036 C 162.190 278.971, 155.091 279.962, 130 279.997 C 104.826 280.033, 98.593 280.967, 88.841 286.165 C 73.535 294.323, 65.181 313.122, 68.006 333.046 C 70.614 351.433, 79.903 362.985, 97.054 369.172 C 103.408 371.464, 104.172 371.501, 150.500 371.776 C 196.149 372.046, 197.594 371.996, 200.759 370.036 C 202.552 368.926, 204.912 366.552, 206.005 364.759 C 207.934 361.597, 207.993 359.598, 207.996 297.357 L 208 233.214 213.900 232.174 C 221.249 230.880, 228.877 227.077, 234.477 221.914 L 238.775 217.953 242.739 222.727 C 254.359 236.720, 259.174 248.225, 259.174 262 C 259.174 273.979, 256.754 280.315, 243.153 303.945 C 230.417 326.071, 227.860 332.839, 227.836 344.500 C 227.805 359.315, 234.174 370.291, 248.189 379.574 C 258.489 386.396, 263.853 388, 276.365 387.999 C 285.527 387.998, 287.103 387.713, 292.780 385.028 C 300.395 381.425, 308.514 373.955, 313.829 365.661 C 316 362.273, 326.377 344.560, 336.888 326.301 C 354.481 295.740, 356 292.717, 356 288.273 C 356 283.519, 354.344 279.852, 351.046 277.307 C 350.196 276.650, 325.125 262.037, 295.334 244.834 C 245.317 215.950, 241.250 213.402, 242.228 211.573 C 245.867 204.775, 246.950 192.473, 244.597 184.658 C 243.826 182.095, 243.489 179.816, 243.847 179.595 C 245.775 178.406, 257.513 177.002, 265.434 177.012 C 275.675 177.025, 282.702 178.599, 290.788 182.690 C 299.805 187.252, 306.424 194.843, 316.858 212.586 C 334.312 242.269, 338.732 247.553, 350.923 253.315 C 371.745 263.156, 400.600 251.657, 411.807 229.052 C 415.263 222.081, 415.497 221.023, 415.451 212.552 C 415.413 205.473, 414.850 201.961, 412.866 196.436 C 410.366 189.473, 370.848 120.350, 366.230 114.861 C 363.515 111.635, 357.384 109.625, 353.287 110.620 C 351.754 110.992, 325.798 125.683, 295.606 143.267 C 245.777 172.289, 240.620 175.066, 239.708 173.369 C 236.369 167.156, 224.296 158.934, 216.258 157.399 C 213.368 156.848, 213.081 156.495, 213.606 154.140 C 213.930 152.688, 216.456 146.790, 219.220 141.034 C 226.938 124.963, 236.507 116.343, 252 111.506 C 256.355 110.146, 263.434 109.635, 286 109.051 C 312.491 108.365, 314.940 108.147, 320.744 105.959 C 331.991 101.720, 341.360 92.721, 345.391 82.286 C 347.730 76.230, 348.700 58.491, 347.100 51.032 C 343.858 35.914, 333.695 25.068, 317.714 19.669 C 311.821 17.678, 309.124 17.553, 265.500 17.252 C 214.106 16.897, 215.020 16.787, 210.270 23.898 L 208 27.296 208 91.648 C 208 127.042, 207.858 156, 207.684 156 C 207.510 156, 204.715 156.490, 201.474 157.089 C 194.080 158.456, 187.072 161.970, 181.502 167.105 L 177.184 171.085 172.842 166.051 C 162.027 153.514, 156.798 140.819, 156.759 127 C 156.725 115.252, 158.977 109.296, 172.068 86.500 C 186.299 61.720, 187.451 58.579, 187.479 44.500 C 187.498 34.365, 187.272 33.036, 184.602 27.598 C 175.632 9.328, 149.776 -3.399, 130.746 1.086 M 465 194.500 L 465 280 484.931 280 L 504.863 280 505.181 257.750 L 505.500 235.500 508.277 230.777 C 511.903 224.607, 518.207 220.820, 525.156 220.635 L 530.244 220.500 547.907 250 L 565.570 279.500 588.399 279.769 C 606.525 279.983, 611.126 279.777, 610.730 278.769 C 610.455 278.071, 601.659 263.802, 591.183 247.059 L 572.135 216.618 579.189 213.206 C 592.652 206.694, 603.794 192.219, 606.903 177.201 C 609.520 164.557, 607.790 149.820, 602.322 138.172 C 598.644 130.338, 587.436 119.280, 579 115.161 C 567.156 109.378, 563.420 109.037, 511.750 109.017 L 465 109 465 194.500 M 630.460 110.250 C 630.198 110.938, 630.100 149.300, 630.242 195.500 L 630.500 279.500 698.250 279.757 L 766 280.014 766 263.007 L 766 246 718 246 L 670 246 670 227.500 L 670 209 713.500 209 L 757 209 757 194.500 L 757 180 713.500 180 L 670 180 670 161.500 L 670 143 718 143 L 766 143 766 126 L 766 109 698.469 109 C 645.364 109, 630.835 109.267, 630.460 110.250 M 789 194.500 L 789 280 808.500 280 L 828 280 828 211.333 C 828 173.567, 828.195 142.862, 828.434 143.101 C 828.867 143.533, 833.208 161.474, 851.702 239.250 L 861.391 280 882.479 280 L 903.568 280 918.380 218.250 C 926.527 184.287, 934.009 153.350, 935.005 149.500 C 936.808 142.538, 936.818 142.877, 936.909 211.250 L 937 280 956.500 280 L 976 280 976 194.500 L 976 109 944.232 109 L 912.463 109 897.546 169.981 C 889.341 203.520, 882.492 230.825, 882.325 230.659 C 882.036 230.370, 853 110.345, 853 109.438 C 853 109.197, 838.600 109, 821 109 L 789 109 789 194.500 M 996.749 118.250 C 999.903 123.338, 1014.525 146.839, 1029.242 170.476 L 1056 213.452 1056 246.726 L 1056 280 1075.500 280 L 1095 280 1095 246.342 L 1095 212.684 1126.250 162.168 C 1143.438 134.384, 1157.865 111.047, 1158.310 110.307 C 1158.981 109.194, 1155.130 109.009, 1135.877 109.231 L 1112.635 109.500 1094.367 140.984 C 1084.319 158.300, 1075.739 172.583, 1075.299 172.725 C 1074.860 172.867, 1073.427 171.075, 1072.116 168.742 C 1070.805 166.409, 1062.489 152.012, 1053.637 136.750 L 1037.541 109 1014.278 109 L 991.014 109 996.749 118.250 M 1174 194.500 L 1174 280 1233 280 L 1292 280 1292 263 L 1292 246 1252.500 246 L 1213 246 1213 177.500 L 1213 109 1193.500 109 L 1174 109 1174 194.500 M 1307 194.500 L 1307 280 1366 280 L 1425 280 1425 263 L 1425 246 1385.500 246 L 1346 246 1346 177.500 L 1346 109 1326.500 109 L 1307 109 1307 194.500 M 1488 109.491 C 1488 109.776, 1476.750 148.075, 1463 194.600 C 1449.250 241.124, 1438 279.372, 1438 279.595 C 1438 279.818, 1447.208 280, 1458.461 280 L 1478.923 280 1480.042 275.750 C 1486.196 252.369, 1488.486 246.597, 1493.974 240.644 C 1498.704 235.513, 1505.417 232.325, 1513.953 231.158 C 1529.211 229.071, 1543.499 234.936, 1549.722 245.840 C 1551.250 248.518, 1554.292 257.300, 1556.482 265.355 L 1560.463 280 1580.232 280 L 1600 280 1599.960 277.250 C 1599.938 275.738, 1588.975 237.375, 1575.598 192 L 1551.277 109.500 1519.638 109.236 C 1502.237 109.091, 1488 109.205, 1488 109.491 M 1507.793 177.700 C 1501.354 201.196, 1496.216 220.550, 1496.375 220.709 C 1496.534 220.868, 1498.052 218.861, 1499.749 216.249 C 1504.313 209.221, 1512.801 201.241, 1517.705 199.369 C 1522.741 197.445, 1531.027 197.929, 1535.861 200.428 C 1538.047 201.559, 1538.812 201.656, 1538.485 200.762 C 1538.231 200.068, 1534.190 185.775, 1529.505 169 C 1524.820 152.225, 1520.653 137.708, 1520.244 136.740 C 1519.758 135.590, 1515.443 149.784, 1507.793 177.700 M 505.021 177.186 L 505.042 211.500 507.484 204.580 C 510.416 196.271, 514.158 191.355, 520.089 188.021 C 524.073 185.783, 525.953 185.489, 539.500 184.995 C 555.996 184.393, 559.911 183.271, 564.485 177.835 C 572.441 168.380, 569.096 151.180, 558.264 145.846 C 553.728 143.612, 552.339 143.485, 529.250 143.186 L 505 142.871 505.021 177.186 M 465.667 319.667 C 465.300 320.033, 465 329.933, 465 341.667 L 465 363 468 363 L 471 363 471 346.341 L 471 329.683 483.514 346.341 C 493.821 360.062, 496.467 363, 498.514 363 L 501 363 501 341 L 501 319 498.500 319 L 496 319 496 335.500 C 496 344.575, 495.663 351.981, 495.250 351.957 C 494.837 351.933, 488.983 344.508, 482.240 335.457 C 470.692 319.956, 467.970 317.363, 465.667 319.667 M 523.500 320.659 C 515.633 324.799, 511.059 332.110, 511.022 340.601 C 510.982 349.908, 515.028 357.443, 521.966 360.983 C 537.891 369.107, 555 358.955, 555 341.381 C 555 327.896, 546.223 318.987, 533 319.049 C 529.067 319.068, 525.315 319.704, 523.500 320.659 M 565.750 319.560 C 565.337 319.985, 565 329.933, 565 341.667 L 565 363 568 363 L 571 363 571 355 L 571 347 576.250 347.023 L 581.500 347.045 586.756 355.023 C 591.420 362.103, 592.354 363, 595.065 363 C 598.530 363, 598.734 363.619, 591.895 353.401 L 587.143 346.302 590.414 344.742 C 596.496 341.842, 598.836 332.523, 595.044 326.304 C 591.669 320.768, 588.940 319.687, 577.152 319.214 C 571.293 318.979, 566.163 319.135, 565.750 319.560 M 607.667 319.667 C 607.300 320.033, 607 329.972, 607 341.753 L 607 363.172 618.250 362.836 C 631.479 362.441, 635.780 360.757, 640.454 354.140 C 642.812 350.803, 643.492 348.642, 643.823 343.436 C 644.595 331.313, 638.545 322.355, 628.067 320.108 C 622.420 318.897, 608.733 318.601, 607.667 319.667 M 654 340.934 L 654 363 657.020 363 L 660.039 363 659.770 341.250 L 659.500 319.500 656.750 319.184 L 654 318.867 654 340.934 M 681.500 320.662 C 673.486 324.886, 669.651 331.485, 669.614 341.112 C 669.579 350.101, 672.751 356.333, 679.476 360.491 C 688.123 365.837, 700.869 364.159, 707.766 356.766 L 710.031 354.338 707.998 352.498 C 706.015 350.703, 705.899 350.721, 703.233 353.207 C 699.123 357.040, 696.197 358.231, 690.890 358.231 C 684.494 358.231, 680.061 355.561, 677.250 350.015 C 673.228 342.081, 674.724 332.934, 680.893 327.743 C 686.817 322.759, 695.549 322.909, 701.458 328.097 C 704.466 330.738, 705.120 330.942, 706.937 329.807 C 708.072 329.099, 709 328.217, 709 327.848 C 709 326.672, 702.617 321.746, 699.282 320.348 C 694.943 318.530, 685.218 318.701, 681.500 320.662 M 741.975 321.250 C 739.376 322.565, 736.275 325.301, 734.517 327.831 C 731.921 331.567, 731.459 333.233, 731.153 339.967 C 730.662 350.775, 733.998 357.215, 742.479 361.829 C 746.749 364.152, 759.315 364.003, 764 361.574 C 770.665 358.118, 771 357.484, 771 348.345 L 771 340 760.667 340 C 750.570 340, 750.338 340.051, 750.497 342.250 C 750.649 344.347, 751.184 344.520, 758.383 344.793 L 766.106 345.086 765.803 349.793 C 765.523 354.149, 765.213 354.640, 761.649 356.381 C 756.450 358.920, 748.048 358.812, 743.751 356.151 C 736.625 351.739, 734.032 340.992, 738.179 333.059 C 741.289 327.108, 744.759 324.763, 751.209 324.254 C 755.526 323.914, 757.403 324.323, 761.408 326.475 C 765.780 328.824, 766.481 328.947, 767.822 327.606 C 769.789 325.640, 768.350 323.832, 762.603 321.050 C 756.701 318.193, 747.850 318.279, 741.975 321.250 M 792.111 321.187 C 791.622 322.459, 787.798 332.038, 783.611 342.474 C 779.425 352.909, 776 361.797, 776 362.224 C 776 362.651, 777.141 363, 778.536 363 C 780.588 363, 781.438 362.143, 783 358.500 L 784.929 354 796.258 354 L 807.587 354 809.130 358.250 C 810.442 361.863, 811.137 362.546, 813.772 362.809 L 816.871 363.117 808.133 341.309 C 799.443 319.620, 799.377 319.498, 796.197 319.187 C 793.623 318.934, 792.825 319.325, 792.111 321.187 M 824.750 319.571 C 824.337 319.990, 824 329.933, 824 341.667 L 824 363 827 363 L 830 363 830 355 L 830 347 835.374 347 L 840.748 347 846 355 C 850.547 361.926, 851.638 363, 854.126 363 C 855.707 363, 857 362.755, 857 362.455 C 857 362.155, 854.712 358.518, 851.915 354.374 C 849.118 350.229, 846.980 346.710, 847.165 346.554 C 847.349 346.398, 848.537 345.731, 849.804 345.072 C 855.399 342.159, 857.848 331.938, 854.364 326.040 C 851.397 321.017, 847.566 319.585, 836 319.178 C 830.225 318.975, 825.163 319.151, 824.750 319.571 M 867 319.301 C 866.725 319.592, 866.630 329.543, 866.788 341.415 L 867.076 363 877.288 362.978 C 885.052 362.961, 888.476 362.513, 891.571 361.107 C 906.608 354.278, 907.734 330.789, 893.427 322.404 C 889.518 320.113, 887.459 319.689, 878.203 319.263 C 872.316 318.993, 867.275 319.010, 867 319.301 M 913.667 319.667 C 913.300 320.033, 913 329.933, 913 341.667 L 913 363 927 363 L 941 363 941 360.500 L 941 358 930 358 L 919 358 919 350.500 L 919 343 929 343 L 939 343 939 340.500 L 939 338 929 338 L 919 338 919 331.500 L 919 325 929.333 325 C 935.017 325, 939.902 324.764, 940.190 324.476 C 940.478 324.189, 940.501 322.839, 940.240 321.476 L 939.767 319 927.050 319 C 920.056 319, 914.033 319.300, 913.667 319.667 M 951 341 L 951 363 954 363 L 957 363 957 346.437 L 957 329.874 969.250 346.404 C 979.862 360.723, 981.868 362.938, 984.250 362.967 L 987 363 987 340.934 L 987 318.867 984.250 319.184 L 981.500 319.500 981 335.786 L 980.500 352.071 968.144 335.536 C 958.180 322.201, 955.324 319, 953.394 319 L 951 319 951 341 M 1023.204 321.128 C 1015.773 324.806, 1011.983 331.847, 1012.022 341.899 C 1012.099 361.448, 1033.838 371.041, 1048.257 357.889 C 1052.293 354.208, 1052.409 353.948, 1050.628 352.560 C 1048.941 351.245, 1048.400 351.386, 1045.128 354 C 1032.128 364.387, 1014.990 354.425, 1017.615 338.008 C 1019.802 324.331, 1035.368 319.482, 1045.757 329.241 C 1047.892 331.248, 1048.150 331.278, 1049.714 329.714 C 1051.278 328.150, 1051.228 327.868, 1048.944 325.389 C 1043.080 319.024, 1031.370 317.086, 1023.204 321.128 M 1072.117 320.782 C 1071.259 322.385, 1061.551 346.227, 1056.861 358.250 L 1055.008 363 1057.868 363 C 1060.340 363, 1060.963 362.384, 1062.459 358.469 L 1064.189 353.938 1075.763 354.219 L 1087.337 354.500 1088.752 358.750 C 1089.985 362.455, 1090.541 363, 1093.083 363 C 1094.688 363, 1096 362.776, 1096 362.502 C 1096 362.229, 1092.129 352.329, 1087.398 340.502 C 1079 319.511, 1078.727 319, 1075.933 319 C 1074.211 319, 1072.690 319.710, 1072.117 320.782 M 1104 340.874 L 1104 363 1107 363 L 1110 363 1110 355 L 1110 347 1115.250 347.001 L 1120.500 347.002 1125.500 354.956 C 1130.059 362.208, 1130.788 362.913, 1133.763 362.955 L 1137.025 363 1134.365 358.750 C 1132.902 356.413, 1130.399 352.587, 1128.804 350.250 C 1127.209 347.913, 1126.360 346, 1126.917 346 C 1127.474 346, 1129.507 344.616, 1131.434 342.924 C 1137.738 337.389, 1137.233 327.567, 1130.375 322.337 C 1127.090 319.831, 1125.934 319.588, 1115.408 319.185 L 1104 318.748 1104 340.874 M 1146 341 L 1146 363 1160 363 L 1174 363 1174 360.500 L 1174 358 1163 358 L 1152 358 1152 350.500 L 1152 343 1162.070 343 C 1171.940 343, 1172.133 342.956, 1171.820 340.750 C 1171.516 338.616, 1170.999 338.485, 1161.750 338.214 L 1152 337.928 1152 331.464 L 1152 325 1162.500 325 L 1173 325 1173 322 L 1173 319 1159.500 319 L 1146 319 1146 341 M 526.390 325.432 C 516.866 329.578, 513.425 343.385, 519.788 351.923 C 525.944 360.182, 539.587 360.426, 545.908 352.389 C 552.594 343.890, 549.827 330.096, 540.595 325.904 C 535.777 323.716, 530.719 323.548, 526.390 325.432 M 571 333.500 L 571 342 578.365 342 C 588.006 342, 591 339.978, 591 333.466 C 591 326.689, 588.569 325, 578.811 325 L 571 325 571 333.500 M 613 341.500 L 613 358 619.288 358 C 631.277 358, 638.204 352.057, 638.354 341.643 C 638.516 330.432, 632.613 325, 620.266 325 L 613 325 613 341.500 M 830 333.500 L 830 342 837.577 342 C 844.688 342, 845.341 341.813, 848.200 338.954 C 850.834 336.320, 851.166 335.406, 850.654 332.204 C 849.734 326.459, 847.149 325, 837.889 325 L 830 325 830 333.500 M 872 341.628 L 872 358.257 880.043 357.791 C 888.591 357.297, 891.426 355.989, 895.352 350.730 C 898.442 346.591, 898.653 338.515, 895.815 333 C 892.711 326.966, 888.646 325.004, 879.250 325.002 L 872 325 872 341.628 M 1109 333.603 L 1109 342.205 1117.588 341.853 C 1125.180 341.541, 1126.399 341.226, 1128.088 339.139 C 1130.810 335.778, 1130.613 329.925, 1127.686 327.174 C 1125.698 325.307, 1124.214 325, 1117.186 325 L 1109 325 1109 333.603 M 795.215 328 C 794.671 329.375, 792.601 334.525, 790.613 339.444 C 788.626 344.364, 787 348.526, 787 348.694 C 787 348.862, 791.050 349, 796 349 C 800.950 349, 804.986 348.663, 804.969 348.250 C 804.952 347.837, 802.973 342.550, 800.571 336.500 C 796.599 326.496, 796.114 325.726, 795.215 328 M 1071 337 C 1068.626 343.059, 1066.923 348.256, 1067.216 348.549 C 1067.509 348.842, 1071.588 348.951, 1076.282 348.791 L 1084.815 348.500 1080.434 337.610 C 1078.024 331.620, 1075.887 326.554, 1075.685 326.351 C 1075.483 326.149, 1073.374 330.941, 1071 337" stroke="none" fill="black" fill-rule="evenodd"/>
</svg>