<svg xmlns="http://www.w3.org/2000/svg" width="1600" height="273" viewBox="0 0 1600 273" version="1.1">
	<path d="M 692.998 1.564 C 691.624 2.334, 686.900 4.171, 682.500 5.646 C 675.158 8.107, 673.326 8.313, 660.236 8.145 C 644.830 7.948, 640 9.097, 640 12.958 C 640 15.435, 642.696 16.222, 650.314 15.973 C 660.529 15.638, 662 15.847, 662 17.633 C 662 19.838, 615.764 179.060, 597.186 240.832 C 591.801 258.738, 589.639 267.308, 590.431 267.612 C 591.072 267.858, 597.869 267.933, 605.536 267.780 L 619.476 267.500 622.791 255 C 634.397 211.245, 638.666 196.928, 645.267 179.624 L 648.271 171.748 654.666 172.261 C 663.640 172.982, 668.280 176.207, 672.018 184.321 C 675.485 191.850, 676.684 200.213, 677.488 222.500 C 678.201 242.263, 679.307 250.519, 682.120 257.056 C 686.096 266.299, 692.971 270.289, 705.008 270.338 C 713.691 270.373, 721.231 267.510, 728.810 261.300 C 736.844 254.716, 747.598 237.753, 751.056 226.207 C 752.173 222.481, 752.133 221.704, 750.756 220.327 C 749.307 218.878, 748.944 218.965, 746.584 221.325 C 745.163 222.746, 744 224.975, 744 226.277 C 744 229.887, 735.629 246.298, 731.400 250.979 C 727.042 255.803, 723.247 258, 719.272 258 C 712.187 258, 710.365 253.290, 709.601 233 C 708.604 206.476, 703.004 189.357, 692.233 179.900 C 687.899 176.095, 677.908 171.201, 672.750 170.358 C 669.110 169.762, 667.449 168, 670.529 168 C 673.549 168, 684.351 161.752, 689.249 157.172 C 695.755 151.089, 699.274 145.872, 703.440 136.140 C 705.308 131.775, 708.088 126.313, 709.617 124.003 C 712.519 119.617, 718.714 114.705, 720.192 115.619 C 720.664 115.910, 722.564 119.153, 724.415 122.824 C 728.608 131.144, 730.752 133.105, 736.341 133.735 C 742.267 134.403, 747.270 132.595, 750.882 128.481 C 757.544 120.894, 755.193 109.107, 746 104 C 739.842 100.579, 726.674 100.453, 720.370 103.755 C 712.678 107.784, 709.874 111.662, 695.500 138.146 C 689.493 149.215, 681.808 157.345, 673.480 161.443 C 668.427 163.929, 665.999 164.451, 657.819 164.806 L 648.138 165.227 653.595 146.581 C 656.596 136.325, 662.907 115.462, 667.620 100.217 C 682.370 52.499, 696.753 1.420, 695.727 0.394 C 695.600 0.267, 694.373 0.794, 692.998 1.564 M 823.479 3.023 C 819.830 7.055, 812.018 8.352, 790.904 8.429 C 770.810 8.502, 768 9.019, 768 12.647 C 768 15.100, 772.912 16.044, 784.364 15.791 C 790.489 15.656, 795.950 15.830, 796.500 16.178 C 797.767 16.979, 797.851 235.806, 796.590 251.383 L 795.709 262.266 785.105 261.597 C 774.204 260.908, 768 261.939, 768 264.437 C 768 267.601, 772.965 268, 812.356 268 C 853.252 268, 856.251 267.702, 854.749 263.790 C 854.002 261.841, 849.046 261.079, 841.203 261.706 C 837.750 261.982, 833.366 261.916, 831.462 261.559 L 828 260.909 828 209.300 L 828 157.690 834.388 148.095 C 849.252 125.770, 866.167 114.602, 882.555 116.293 C 891.807 117.248, 896.801 122.159, 899.590 133.043 C 901.501 140.506, 901.599 145.212, 901.250 213.400 L 901 262.301 890.170 261.643 C 878.810 260.953, 873 261.961, 873 264.623 C 873 267.586, 878.501 268, 917.874 268 C 959.620 268, 962.262 267.731, 960.694 263.645 C 960.003 261.844, 959.297 261.756, 944.339 261.603 C 938.750 261.547, 933.800 261.125, 933.339 260.667 C 932.285 259.621, 932.329 221.652, 933.428 183 C 934.575 142.685, 933.352 135.636, 923.355 124.949 C 912.257 113.084, 894.836 107.598, 875.750 109.958 C 860.543 111.838, 848.533 119.783, 834.342 137.350 L 828 145.200 828 85.257 C 828 26.652, 827.391 1, 826.001 1 C 825.621 1, 824.486 1.910, 823.479 3.023 M 160 28.906 C 150.426 32.297, 146.348 40.151, 149.017 50.062 C 151.472 59.181, 157.125 63.311, 167.048 63.234 C 174.372 63.177, 180.131 60.270, 183.749 54.803 C 186.011 51.385, 186.493 49.567, 186.458 44.573 C 186.409 37.490, 184.465 33.179, 179.830 29.879 C 175.424 26.742, 167.244 26.340, 160 28.906 M 57 69.533 C 57 73.816, 51.214 89.886, 47.428 96.119 C 42.674 103.944, 34.324 111.356, 27.247 114.032 C 24.086 115.227, 17.529 116.542, 12.675 116.955 C 5.632 117.555, 3.418 118.138, 1.713 119.842 C -2.065 123.621, 0.480 124.474, 16.294 124.729 L 30.491 124.958 31.354 128.229 C 32.392 132.162, 31.678 167.521, 29.900 200.310 C 27.948 236.307, 30.035 252.159, 37.804 260.339 C 44.648 267.546, 55.233 271.284, 69 271.356 C 87.984 271.456, 102.436 265.190, 109.678 253.718 C 112.809 248.758, 112.533 244.500, 109.079 244.500 C 107.234 244.500, 106.150 245.509, 104.521 248.745 C 101.662 254.423, 97.917 258.176, 91.677 261.614 C 87.352 263.998, 85.320 264.470, 79.327 264.484 C 73.604 264.497, 71.582 264.078, 69.327 262.411 C 61.236 256.434, 59.429 245.002, 60.491 206.500 C 60.885 192.200, 61.348 179.375, 61.520 178 C 61.693 176.625, 61.871 164.137, 61.917 150.250 L 62 125 84.889 125 C 105.946 125, 107.967 124.847, 110.139 123.086 C 111.438 122.033, 112.210 120.881, 111.856 120.525 C 110.356 119.019, 97.986 118.186, 84.247 118.666 C 76.136 118.949, 67.813 118.803, 65.752 118.340 L 62.003 117.500 61.752 92.500 L 61.500 67.500 59.250 67.180 C 57.398 66.917, 57 67.334, 57 69.533 M 323.628 111.110 C 313.034 113.598, 299.239 124.010, 286.159 139.391 L 282 144.282 281.986 129.891 C 281.979 121.976, 281.703 114.495, 281.374 113.266 L 280.775 111.032 278.230 113.034 C 273.107 117.064, 265.937 118.217, 244.502 118.460 C 233.397 118.587, 223.791 119.011, 223.156 119.404 C 222.520 119.797, 222 120.941, 222 121.948 C 222 124.436, 226.240 125.120, 240.123 124.867 L 251.349 124.663 251.424 188.581 C 251.466 223.737, 251.126 254.696, 250.669 257.381 L 249.838 262.262 238.669 261.614 C 227.537 260.969, 223.235 261.748, 222.303 264.578 C 221.330 267.532, 227.351 268, 266.356 268 C 307.593 268, 310.260 267.726, 308.694 263.645 C 307.992 261.816, 305.841 261.540, 295.356 261.936 C 291.426 262.084, 286.874 261.912, 285.240 261.553 L 282.268 260.900 281.498 221.200 C 280.556 172.588, 280.598 167.253, 281.979 160.600 C 283.631 152.641, 289.509 143.515, 299.500 133.392 C 309.836 122.921, 317.100 118.828, 328.769 116.901 C 344.393 114.321, 352.287 121.162, 354.970 139.608 C 355.981 146.557, 355.501 237.067, 354.364 253.891 L 353.797 262.281 343.601 261.622 C 333.117 260.944, 327 261.982, 327 264.437 C 327 267.606, 331.957 268, 371.856 268 C 413.621 268, 416.262 267.731, 414.694 263.645 C 413.992 261.816, 411.278 261.564, 396.324 261.940 L 387.148 262.171 386.446 257.486 C 386.059 254.909, 386.025 242.833, 386.369 230.650 C 388.677 149.032, 388.538 144.339, 383.488 133.230 C 378.965 123.280, 367.913 115.036, 354.369 111.508 C 347.977 109.843, 330.014 109.611, 323.628 111.110 M 493.500 110.641 C 472.662 113.801, 454.254 128.504, 442.980 150.996 C 435.876 165.167, 432.991 177.426, 433.022 193.315 C 433.096 231.489, 453.967 261.935, 485.609 270.028 C 495.131 272.463, 512.525 272.672, 521.897 270.463 C 537.257 266.842, 553.810 253.778, 561.129 239.500 C 568.336 225.442, 570.512 215.806, 566.503 215.708 C 564.758 215.665, 561.958 220.536, 559.428 228.015 C 556.133 237.756, 553.334 242.349, 546.827 248.691 C 535.506 259.725, 521.893 265.373, 506.500 265.422 C 495.161 265.459, 488.737 263.368, 482.239 257.525 C 476.739 252.580, 472.777 245.217, 470.288 235.314 C 468.947 229.980, 468.577 224.048, 468.581 208 C 468.584 196.725, 468.932 185.363, 469.354 182.750 L 470.123 178 511.894 178 C 554.307 178, 564.569 177.287, 565.730 174.260 C 566.651 171.860, 562.170 157.092, 557.982 148.724 C 551.095 134.964, 539.796 123.005, 528.026 117.019 C 518.939 112.397, 502.250 109.314, 493.500 110.641 M 1250.782 111.553 C 1238.251 114.591, 1228.089 121.593, 1221.369 131.821 C 1219.316 134.945, 1216.481 139.043, 1215.069 140.929 L 1212.500 144.358 1212 128.261 C 1211.725 119.407, 1211.200 111.864, 1210.833 111.499 C 1210.467 111.133, 1209.247 111.753, 1208.123 112.877 C 1204.092 116.908, 1196.264 118.197, 1174.330 118.440 C 1156.832 118.633, 1153.668 118.904, 1152.246 120.326 C 1149 123.571, 1152.065 124.487, 1166.799 124.675 L 1180.500 124.850 1181.127 165.175 C 1181.749 205.161, 1181.447 240.664, 1180.365 254.894 L 1179.802 262.289 1169.072 261.637 C 1157.811 260.953, 1152 261.969, 1152 264.623 C 1152 267.583, 1157.498 268, 1196.494 268 C 1231.407 268, 1236.040 267.817, 1237.473 266.384 C 1241.123 262.734, 1236.769 261.011, 1225.874 261.793 C 1222.230 262.055, 1217.678 261.975, 1215.758 261.614 L 1212.268 260.960 1211.468 223.730 C 1210.242 166.731, 1210.330 162.626, 1212.935 155.054 C 1217.032 143.149, 1228.705 129.069, 1240.101 122.287 C 1255.618 113.054, 1273.384 115.263, 1279.595 127.199 C 1283.947 135.564, 1284.086 138.315, 1283.364 201.760 L 1282.679 262.020 1270.501 261.760 C 1261.014 261.557, 1257.933 261.822, 1256.559 262.958 C 1254.888 264.338, 1254.911 264.510, 1257.008 266.208 C 1259.053 267.864, 1262.245 268, 1298.920 268 C 1340.306 268, 1343.254 267.709, 1341.745 263.777 C 1340.935 261.668, 1336.841 261.079, 1327.392 261.714 C 1322.932 262.013, 1318.535 261.839, 1317.619 261.327 C 1316.171 260.516, 1315.906 257.739, 1315.585 239.947 C 1315.381 228.701, 1314.883 208.925, 1314.478 196 C 1313.612 168.352, 1314.420 160.973, 1319.495 150.219 C 1328.297 131.567, 1343.958 118.170, 1359 116.424 C 1373.724 114.715, 1382.728 123.203, 1386.133 142 C 1387.621 150.214, 1387.694 208.096, 1386.260 243 L 1385.500 261.500 1375 261.234 C 1364.501 260.969, 1359.620 261.941, 1358.641 264.493 C 1358.357 265.234, 1359.085 266.113, 1360.319 266.518 C 1361.519 266.911, 1380.500 267.453, 1402.500 267.723 C 1442.347 268.211, 1442.507 268.205, 1444.426 266.083 C 1447.656 262.512, 1445.359 261.651, 1433.122 261.844 C 1417.323 262.093, 1417.381 262.131, 1416.497 250.962 C 1416.055 245.381, 1416.483 227.165, 1417.589 204.436 C 1419.529 164.582, 1419.018 147.925, 1415.551 138 C 1408.733 118.484, 1382.589 106.518, 1357.264 111.322 C 1340.771 114.451, 1328.292 123.100, 1320.934 136.500 C 1314.564 148.100, 1314.418 148.208, 1313.584 141.923 C 1311.635 127.233, 1299.628 115.717, 1281.902 111.539 C 1274.030 109.683, 1258.465 109.690, 1250.782 111.553 M 1517.972 111.877 C 1514.931 112.850, 1509.756 115.085, 1506.472 116.843 C 1489.397 125.984, 1473.240 147.859, 1466.842 170.500 C 1463.766 181.388, 1463.543 205.079, 1466.423 215 C 1470.873 230.323, 1477.769 241.792, 1488.676 252.011 C 1497.091 259.894, 1505.861 265.166, 1516.500 268.735 C 1523.652 271.135, 1525.985 271.421, 1538.500 271.433 C 1551.404 271.445, 1553.037 271.233, 1559.361 268.726 C 1574.957 262.543, 1588.061 250.728, 1595.122 236.483 C 1601.160 224.302, 1601.676 212.363, 1595.940 217.554 C 1594.877 218.517, 1593.279 221.823, 1592.389 224.902 C 1588.639 237.886, 1587.826 239.353, 1580.090 247.094 C 1556.183 271.016, 1518.719 271.972, 1506.980 248.960 C 1501.969 239.139, 1500.779 231.151, 1500.257 203.861 L 1499.766 178.221 1547.334 177.860 C 1583.700 177.583, 1595.197 177.203, 1596.154 176.246 C 1597.152 175.248, 1597.158 173.548, 1596.185 167.872 C 1592.609 147.017, 1577.715 125.846, 1560.170 116.678 C 1556.502 114.761, 1551.056 112.474, 1548.068 111.596 C 1540.642 109.414, 1525.219 109.557, 1517.972 111.877 M 176.618 113.592 C 170.628 116.986, 161.997 118.249, 143.903 118.380 C 131.449 118.470, 126.894 118.843, 125.653 119.872 C 121.028 123.712, 125.682 125.213, 141.307 124.923 L 151.500 124.733 151.804 184.117 C 151.971 216.777, 151.812 247.724, 151.450 252.886 L 150.793 262.272 140.146 261.630 C 129.547 260.990, 125.219 261.796, 124.303 264.578 C 123.328 267.537, 129.346 268, 168.825 268 C 203.165 268, 208.856 267.789, 210.777 266.443 C 212 265.587, 213 264.475, 213 263.972 C 213 262.295, 206.592 261.346, 198.234 261.784 C 193.688 262.022, 188.451 261.932, 186.597 261.584 L 183.226 260.952 182.770 188.226 C 182.517 148.062, 181.907 114.581, 181.407 113.447 L 180.500 111.393 176.618 113.592 M 1041.238 112.043 C 1018.704 116.085, 998.539 130.615, 989.123 149.594 C 985.168 157.565, 980.275 174.238, 979.090 183.780 C 974.887 217.633, 995.877 253.781, 1027.330 266.862 C 1057.193 279.281, 1089.004 272.292, 1111.210 248.433 C 1135.804 222.009, 1139.711 184.863, 1121.774 148 C 1115.824 135.772, 1105.676 125.818, 1092.858 119.637 C 1087.711 117.155, 1080.800 114.398, 1077.500 113.511 C 1070.332 111.584, 1048.684 110.708, 1041.238 112.043 M 492.404 116.771 C 482.259 120.390, 474.250 129.329, 470.147 141.613 C 467.730 148.853, 466.701 158.916, 467.728 165.283 L 468.500 170.066 499.500 170.049 L 530.500 170.032 530.170 157.863 C 529.795 144.039, 527.491 133.322, 523.553 127.083 C 517.634 117.707, 503.186 112.924, 492.404 116.771 M 1525.951 116.314 C 1513.486 119.808, 1504.940 129.947, 1500.860 146.082 C 1499.244 152.474, 1498.876 156.184, 1499.303 161.820 C 1499.609 165.875, 1500.045 169.379, 1500.272 169.605 C 1501.052 170.385, 1556.508 170.375, 1559.818 169.594 L 1563.135 168.811 1562.512 159.656 C 1561.432 143.805, 1560.096 136.778, 1556.921 130.257 C 1551.398 118.914, 1538.075 112.915, 1525.951 116.314 M 1051.021 117.202 C 1031.044 119.311, 1020.708 127.637, 1015.886 145.503 C 1013.972 152.598, 1013.695 156.546, 1013.438 180.500 C 1013.062 215.563, 1015.100 238.087, 1019.486 247.329 C 1024.807 258.542, 1039.699 266.195, 1056.500 266.351 C 1071.667 266.492, 1083.224 261.402, 1089.683 251.738 C 1096.814 241.068, 1098.350 228.631, 1097.719 186.691 C 1097.180 150.832, 1096.329 144.308, 1090.712 133 C 1088.227 127.997, 1086.363 125.750, 1082.616 123.241 C 1074.355 117.712, 1064.334 115.796, 1051.021 117.202" stroke="none" fill="black" fill-rule="evenodd"/>
</svg>